<?xml version="1.0" encoding="UTF-8"?>
<svg xmlns="http://www.w3.org/2000/svg" xmlns:xlink="http://www.w3.org/1999/xlink" width="48px" height="48px" viewBox="0 0 48 48" version="1.1">
<g id="surface1">
<path style=" stroke:none;fill-rule:nonzero;fill:rgb(0%,0%,0%);fill-opacity:1;" d="M 24.519531 9.496094 C 21.898438 9.496094 19.773438 7.371094 19.773438 4.746094 C 19.773438 2.125 21.898438 0 24.519531 0 L 6.226562 25.984375 C -0.949219 25.832031 -6.644531 19.894531 -6.496094 12.71875 C -6.34375 5.546875 -0.40625 -0.148438 6.769531 0 L 5.992188 42 C -5.605469 41.785156 -14.835938 32.210938 -14.621094 20.613281 C -14.40625 9.011719 -4.832031 -0.214844 6.769531 0 L 18 0 C 18 3.101562 15.484375 5.617188 12.382812 5.617188 C 9.28125 5.617188 6.769531 3.101562 6.769531 0 L 6.769531 30.75 C -1.722656 30.75 -8.605469 23.867188 -8.605469 15.375 C -8.605469 6.882812 -1.722656 0 6.769531 0 L 14.269531 0 C 14.269531 2.070312 12.589844 3.75 10.519531 3.75 C 8.445312 3.75 6.769531 2.070312 6.769531 0 L 6.769531 12.75 C 3.246094 12.75 0.394531 9.894531 0.394531 6.375 C 0.394531 2.855469 3.246094 0 6.769531 0 L 15.773438 0 C 15.773438 2.488281 13.757812 4.503906 11.269531 4.503906 C 8.785156 4.503906 6.769531 2.488281 6.769531 0 L 6.769531 26.527344 C -0.558594 26.675781 -6.617188 20.859375 -6.765625 13.535156 C -6.917969 6.210938 -1.101562 0.148438 6.226562 0 Z M 24.519531 9.496094 "/>
<path style=" stroke:none;fill-rule:nonzero;fill:rgb(0%,0%,0%);fill-opacity:1;" d="M 46.023438 22.890625 L 39.011719 16.179688 L 39.011719 6 C 37.351562 6.414062 35.675781 5.40625 35.261719 3.75 C 34.847656 2.09375 35.851562 0.414062 37.511719 0 L 33.011719 0 C 33.472656 -0.269531 34.046875 -0.269531 34.511719 0 L 34.511719 3 L 29.082031 -2.191406 C 25.570312 3.292969 24.816406 3 24 3 C 23.1875 3 22.433594 3.292969 21.925781 3.808594 L 1.984375 22.886719 C 1.402344 23.449219 1.328125 24.375 1.859375 24.984375 C -5.042969 18.597656 -5.457031 7.828125 0.929688 0.929688 C 7.316406 -5.96875 18.085938 -6.386719 24.984375 0 L 23.484375 6.496094 C 25.277344 6.910156 27.066406 5.792969 27.480469 3.996094 C 27.894531 2.203125 26.777344 0.414062 24.984375 0 L 44.4375 18.589844 C 39.304688 23.960938 30.789062 24.15625 25.417969 19.023438 C 20.046875 13.890625 19.851562 5.371094 24.984375 0 C 25.558594 -0.597656 25.511719 -1.582031 24.914062 -2.152344 Z M 46.023438 22.890625 "/>
</g>
</svg>
